<svg xmlns="http://www.w3.org/2000/svg" viewBox="0 0 220 220" fill="none">
  <path d="M94 196c-4-32-4-59 0-81 5-28 17-49 35-64M94 196c5-22 17-39 35-51M94 196c-12-19-28-31-49-38M94 196c-3-25-15-44-35-57M94 196c15-15 35-23 60-25M129 51c5-14 14-26 28-36M129 51c-3-16-10-29-21-39M129 51c13 0 26-4 39-12M72 78c6-16 8-31 4-47M72 78c-14-9-27-14-42-16M72 78c15 9 27 21 36 36M45 112c-17-2-31 2-43 11M45 112c8 10 13 22 17 37M45 112c13-11 28-18 45-21M151 121c7-16 16-29 29-38M151 121c18-3 34-1 48 7M151 121c-8 13-13 28-15 45" stroke="#d64f3d" stroke-width="9" stroke-linecap="round" stroke-linejoin="round"/>
</svg>
