<svg xmlns="http://www.w3.org/2000/svg" viewBox="0 0 220 220" fill="none">
  <path d="M121 196c1-34-2-60-9-81-9-29-24-50-45-65M121 196c-9-22-24-38-46-49M121 196c16-17 36-27 58-31M121 196c1-24 10-44 27-60M121 196c-18-13-39-19-64-17M76 49c-4-14-12-26-25-37M76 49c5-16 14-28 27-37M76 49c-14 0-28-3-42-10M149 82c-8-16-12-31-10-47M149 82c15-8 29-12 44-12M149 82c-13 11-23 24-31 40M171 123c17-1 31 4 42 13M171 123c-7 10-12 23-14 38M171 123c-14-10-30-15-47-15M68 118c-7-16-17-28-31-37M68 118c-18-1-34 2-47 11M68 118c7 13 11 29 12 46" stroke="#d84d43" stroke-width="9" stroke-linecap="round" stroke-linejoin="round"/>
</svg>
