<svg xmlns="http://www.w3.org/2000/svg" viewBox="0 0 640 620" fill="none">
  <rect width="640" height="620" rx="34" fill="#f5eee6"/>
  <circle cx="320" cy="310" r="233" fill="#fbf7f2" stroke="#e6dacc" stroke-width="12"/>
  <circle cx="320" cy="310" r="194" fill="#efe6da"/>
  <g fill="#c98e54" stroke="#8a5a35" stroke-width="6">
    <path d="M219 181c42-10 72 18 84 53 11 31 4 64-19 83-22 18-55 23-88 4-37-22-49-69-31-103 11-20 29-32 54-37Z"/>
    <path d="M382 172c47 4 79 43 76 88-2 34-26 67-57 76-27 8-57-1-82-26-29-29-34-72-7-103 19-22 42-37 70-35Z"/>
    <path d="M176 340c43-9 82 18 95 53 9 24 8 59-13 81-23 25-60 35-91 24-35-12-64-47-59-86 5-40 30-66 68-72Z"/>
    <path d="M345 330c36-8 77 4 100 29 24 27 31 71 10 99-21 29-60 44-94 35-42-12-79-55-71-97 7-35 28-57 55-66Z"/>
    <path d="M257 255c19-18 39-25 56-23 19 1 36 14 46 31 10 18 11 39 1 58-8 16-24 28-43 31-22 4-50-4-63-25-17-27-16-55 3-72Z"/>
  </g>
  <g stroke="#f7dfc6" stroke-width="6" stroke-linecap="round">
    <path d="M209 201c19 5 35 17 46 35M373 196c20 7 35 22 45 42M170 364c25 4 46 19 60 41M354 359c23 9 39 24 48 46M267 269c10 3 21 9 31 17"/>
  </g>
  <g stroke="#8bbc5b" stroke-width="7" stroke-linecap="round">
    <path d="M131 199c37 27 66 63 86 106M485 175c-37 22-68 54-93 95M108 363c46-9 92-9 139 0M488 438c-44-24-91-35-140-34"/>
  </g>
</svg>
