<svg xmlns="http://www.w3.org/2000/svg" viewBox="0 0 540 660" fill="none">
  <defs>
    <linearGradient id="s2" x1="0" y1="0" x2="0" y2="1">
      <stop offset="0" stop-color="#ecd6b3"/>
      <stop offset=".48" stop-color="#bf7b4a"/>
      <stop offset="1" stop-color="#5b361f"/>
    </linearGradient>
  </defs>
  <rect width="540" height="660" rx="28" fill="url(#s2)"/>
  <path d="M0 167h540v26L0 239v-72Z" fill="#452819"/>
  <path d="M0 159h540l-30 34H29L0 159Z" fill="#6b4228"/>
  <rect x="40" y="222" width="460" height="337" rx="10" fill="#7a4e2f"/>
  <rect x="77" y="262" width="95" height="244" rx="7" fill="#a16f42"/>
  <rect x="202" y="262" width="95" height="244" rx="7" fill="#a16f42"/>
  <rect x="327" y="262" width="136" height="244" rx="7" fill="#a16f42"/>
  <g fill="#ffca73">
    <circle cx="96" cy="196" r="20"/>
    <circle cx="179" cy="188" r="20"/>
    <circle cx="264" cy="180" r="20"/>
    <circle cx="348" cy="186" r="20"/>
    <circle cx="435" cy="198" r="20"/>
  </g>
  <g fill="#6d4326">
    <rect x="140" y="457" width="244" height="18" rx="9"/>
    <rect x="164" y="430" width="194" height="18" rx="9"/>
    <rect x="211" y="384" width="18" height="48" rx="9"/>
    <rect x="293" y="384" width="18" height="48" rx="9"/>
  </g>
  <path d="M0 564c102-25 193-30 269-14 75 17 165 17 271 0v110H0V564Z" fill="#4d6a69"/>
</svg>
